Coordinates
version=1
nRows=9
nColumns=42
inDegrees=yes

Units are S.I. units (second, meters, Newtons, ...)
Angles are in degrees.

endheader
time	pelvis_tilt	pelvis_list	pelvis_rotation	pelvis_tx	pelvis_ty	pelvis_tz	hip_flexion_r	hip_adduction_r	hip_rotation_r	knee_angle_r	knee_vv_r	knee_rot_r	ankle_angle_r	subtalar_angle_r	mtp_angle_r	hip_flexion_l	hip_adduction_l	hip_rotation_l	knee_angle_l	knee_vv_l	knee_rot_l	ankle_angle_l	subtalar_angle_l	mtp_angle_l	lumbar_extension	lumbar_bending	lumbar_rotation	arm_flex_r	arm_add_r	arm_rot_r	elbow_flex_r	pro_sup_r	wrist_flex_r	wrist_dev_r	arm_flex_l	arm_add_l	arm_rot_l	elbow_flex_l	pro_sup_l	wrist_flex_l	wrist_dev_l
      2.57000000	     11.29794054	      5.82390701	     -5.42334460	      0.07579405	      0.90694333	     -0.01411734	     -9.53529455	     -8.52620312	      2.77474084	    -47.34647919	      0.00000000	      0.00000000	    -15.41141198	      0.00000000	      0.00000000	      3.40749864	      9.79276776	     -5.87384462	    -11.78260328	      0.00000000	      0.00000000	     -2.40514791	      0.00000000	      0.00000000	    -23.35578326	     -8.06472108	      4.08057248	     12.22276000	    -13.27313649	     37.46615921	     11.66760456	     86.51662706	      0.00000000	      0.00000000	     11.22737602	    -12.60482264	     43.99758350	      5.65996489	     85.94366927	      0.00000000	      0.00000000
      2.58000000	     11.13882855	      5.97522645	     -5.82140396	      0.07520090	      0.90755333	     -0.01499886	     -7.53573942	     -8.72702246	      3.60366352	    -50.05110582	      0.00000000	      0.00000000	    -18.30496706	      0.00000000	      0.00000000	      2.78077429	     10.10790750	     -5.99446561	    -11.24379957	      0.00000000	      0.00000000	     -2.08252867	      0.00000000	      0.00000000	    -23.16650777	     -8.22689882	      4.09001454	     11.54271521	    -13.00700144	     38.67781686	     10.61993753	     86.51662706	      0.00000000	      0.00000000	     12.10846105	    -12.99176556	     43.27933922	      6.52103879	     85.94366927	      0.00000000	      0.00000000
      2.59000000	     11.04190125	      6.04094976	     -6.16791194	      0.07445508	      0.90826411	     -0.01585382	     -5.65701688	     -8.79965311	      4.30814111	    -52.52390287	      0.00000000	      0.00000000	    -20.57550673	      0.00000000	      0.00000000	      2.11327201	     10.32585945	     -6.13056679	    -10.76622942	      0.00000000	      0.00000000	     -1.74427557	      0.00000000	      0.00000000	    -23.09459755	     -8.28927506	      4.03015180	     10.89381704	    -12.76033661	     39.82215051	      9.66131240	     86.51662706	      0.00000000	      0.00000000	     12.98449049	    -13.40772274	     42.52407130	      7.44600474	     85.94366927	      0.00000000	      0.00000000
      2.60000000	     10.99776286	      6.03046972	     -6.44656034	      0.07356805	      0.90905790	     -0.01672283	     -3.90859989	     -8.76556765	      4.84568009	    -54.73625476	      0.00000000	      0.00000000	    -22.04331694	      0.00000000	      0.00000000	      1.39929840	     10.46088518	     -6.25728090	    -10.32306264	      0.00000000	      0.00000000	     -1.39881724	      0.00000000	      0.00000000	    -23.12766185	     -8.25273800	      3.89234414	     10.26631743	    -12.53972201	     40.88699466	      8.80111506	     86.51662706	      0.00000000	      0.00000000	     13.85202900	    -13.84644846	     41.74577728	      8.41972505	     85.94366927	      0.00000000	      0.00000000
      2.61000000	     10.99079127	      5.96046583	     -6.64477155	      0.07257470	      0.90992430	     -0.01761257	     -2.27955420	     -8.64842446	      5.19793503	    -56.66789417	      0.00000000	      0.00000000	    -22.59148419	      0.00000000	      0.00000000	      0.64248727	     10.53284306	     -6.34737386	     -9.88656176	      0.00000000	      0.00000000	     -1.05969434	      0.00000000	      0.00000000	    -23.23716654	     -8.12795472	      3.67412031	      9.64550725	    -12.34884096	     41.86620292	      8.04458731	     86.51662706	      0.00000000	      0.00000000	     14.70549445	    -14.30368863	     40.95708564	      9.42494782	     85.94366927	      0.00000000	      0.00000000
      2.62000000	     11.00019312	      5.84933730	     -6.75494190	      0.07153681	      0.91084938	     -0.01853883	     -0.74408034	     -8.47162047	      5.36558735	    -58.30993929	      0.00000000	      0.00000000	    -22.19025965	      0.00000000	      0.00000000	     -0.14368057	     10.56070847	     -6.37648368	     -9.43730665	      0.00000000	      0.00000000	     -0.74060747	      0.00000000	      0.00000000	    -23.38560361	     -7.93031862	      3.37854491	      9.01585315	    -12.18942601	     42.75763575	      7.39289948	     86.51662706	      0.00000000	      0.00000000	     15.53954775	    -14.77524105	     40.16732045	     10.44486606	     85.94366927	      0.00000000	      0.00000000
      2.63000000	     11.00103883	      5.71303266	     -6.77615530	      0.07050805	      0.91180583	     -0.01953289	      0.72822377	     -8.25810784	      5.36111761	    -59.66419040	      0.00000000	      0.00000000	    -20.90479299	      0.00000000	      0.00000000	     -0.93659638	     10.55885316	     -6.32884888	     -8.96754385	      0.00000000	      0.00000000	     -0.45160824	      0.00000000	      0.00000000	    -23.53416890	     -7.67498041	      3.01419394	      8.36455229	    -12.06224127	     43.56117085	      6.84345231	     86.51662706	      0.00000000	      0.00000000	     16.34998715	    -15.25548924	     39.38036151	     11.46567411	     85.94366927	      0.00000000	      0.00000000
      2.64000000	     10.96832108	      5.56288139	     -6.71452419	      0.06951013	      0.91275390	     -0.02060324	      2.16369229	     -8.02988049	      5.20228389	    -60.73754782	      0.00000000	      0.00000000	    -18.88349057	      0.00000000	      0.00000000	     -1.70806010	     10.53646517	     -6.20143803	     -8.47901069	      0.00000000	      0.00000000	     -0.19713577	      0.00000000	      0.00000000	    -23.64925893	     -7.37380149	      2.59525760	      7.68301286	    -11.96757302	     44.27731664	      6.39014414	     86.51662706	      0.00000000	      0.00000000	     17.13279569	    -15.73757191	     38.59317992	     12.47826116	     85.94366927	      0.00000000	      0.00000000
      2.65000000	     10.88344829	      5.40561966	     -6.58159678	      0.06853141	      0.91364692	     -0.02173088	      3.58168948	     -7.80557769	      4.90805232	    -61.53422480	      0.00000000	      0.00000000	    -16.33047721	      0.00000000	      0.00000000	     -2.43246057	     10.49850355	     -6.00508143	     -7.97863135	      0.00000000	      0.00000000	      0.02405361	      0.00000000	      0.00000000	    -23.70612605	     -7.03490550	      2.14013855	      6.96697705	    -11.90532343	     44.90630661	      6.02369577	     86.51662706	      0.00000000	      0.00000000	     17.88352762	    -16.21422548	     37.79575269	     13.47934213	     85.94366927	      0.00000000	      0.00000000
